<svg version="1.1" id="Layer_1" xmlns="http://www.w3.org/2000/svg" xmlns:xlink="http://www.w3.org/1999/xlink" x="0px" y="0px"
	 width="100%" viewBox="0 0 991 792" enable-background="new 0 0 991 792" xml:space="preserve">
<path fill="#FFFFFF" opacity="1.000000" stroke="none" 
	d="
M503.000000,793.000000 
	C335.333344,793.000000 168.166672,793.000000 1.000000,793.000000 
	C1.000000,529.000000 1.000000,265.000000 1.000000,1.000000 
	C331.333344,1.000000 661.666687,1.000000 992.000000,1.000000 
	C992.000000,265.000000 992.000000,529.000000 992.000000,793.000000 
	C829.166687,793.000000 666.333313,793.000000 503.000000,793.000000 
M574.227234,390.812897 
	C605.224487,356.280945 611.562500,308.563019 590.447205,268.695801 
	C569.296936,228.762665 526.451355,206.284317 481.022797,213.204620 
	C438.899719,219.621368 409.485687,243.726990 395.747711,284.028625 
	C382.093048,324.085907 390.863281,360.523285 419.425995,391.964355 
	C420.263977,392.886749 421.351135,393.582764 422.598297,394.612335 
	C429.232086,383.143524 435.550934,371.995544 442.130798,361.003845 
	C443.739655,358.316254 443.599274,356.524628 441.875671,353.920502 
	C424.456055,327.601624 428.745514,291.965027 451.707672,270.877808 
	C475.538971,248.992401 511.049774,247.321320 536.067200,266.908081 
	C561.476440,286.801453 569.090393,321.691467 553.047913,349.405334 
	C549.104675,356.217407 549.660522,360.647430 553.513794,366.612061 
	C559.351868,375.649078 564.440491,385.170258 570.029968,394.800049 
	C571.586914,393.352020 572.662781,392.351318 574.227234,390.812897 
M509.332001,406.230377 
	C511.913422,410.700134 514.374634,415.247040 517.158752,419.586700 
	C517.876587,420.705658 519.809814,422.046783 520.846069,421.809204 
	C536.132019,418.304199 549.939636,411.698059 562.388550,401.623352 
	C540.380981,363.513611 518.550537,325.710541 496.239532,287.075317 
	C473.900238,325.764862 452.114288,363.496063 430.106110,401.612183 
	C442.487396,411.713348 456.335754,418.233246 471.606171,421.755981 
	C472.701630,422.008698 474.802063,420.424255 475.568573,419.166046 
	C479.898254,412.059143 483.947968,404.782166 488.123810,397.580994 
	C490.677399,393.177460 493.286224,388.805969 496.296112,383.697174 
	C500.838806,391.540375 504.907410,398.565063 509.332001,406.230377 
M170.848511,586.036011 
	C174.680496,586.036011 178.512497,586.035889 182.344482,586.035889 
	C193.576843,586.035828 193.508423,586.064087 197.723526,596.284607 
	C198.307861,597.701477 199.901199,599.625427 201.124451,599.698853 
	C207.051559,600.054871 213.011795,599.859497 219.475937,599.859497 
	C218.787506,597.697571 218.351868,596.127991 217.792648,594.603699 
	C210.511108,574.756531 203.237473,554.906372 195.899017,535.080200 
	C194.117813,530.268005 193.368607,523.720459 189.850433,521.284180 
	C186.313950,518.835266 179.895813,520.756714 174.779724,520.311584 
	C170.908081,519.974670 169.294205,521.533569 168.033218,525.054443 
	C159.669861,548.406128 151.080734,571.676819 142.574951,594.977478 
	C142.046234,596.425781 141.601120,597.904602 140.951126,599.871521 
	C144.776932,599.871521 147.762344,599.871521 150.747757,599.871521 
	C161.365936,599.871521 161.402466,599.885254 165.163925,589.896912 
	C166.036224,587.580566 166.837967,585.468628 170.848511,586.036011 
M528.500122,520.389343 
	C527.501221,520.389282 526.477112,520.534180 525.507690,520.365112 
	C520.232971,519.445312 517.764160,521.597961 515.960510,526.773682 
	C508.079407,549.389282 499.667877,571.820007 491.463074,594.323059 
	C490.865814,595.961182 490.382263,597.640808 489.661499,599.871765 
	C492.248840,599.871765 494.059937,599.872375 495.871063,599.871582 
	C499.866425,599.869812 503.881653,600.088318 507.845062,599.731262 
	C509.043152,599.623413 510.918793,598.045105 511.089539,596.927307 
	C512.642883,586.757629 518.994385,584.423828 528.020447,586.013123 
	C528.989258,586.183716 530.014099,586.036072 531.012939,586.036072 
	C542.189636,586.036072 542.121094,586.064148 546.296509,596.254272 
	C546.880188,597.678711 548.466064,599.624084 549.686707,599.697998 
	C555.612793,600.056702 561.572510,599.860046 568.072388,599.860046 
	C567.385742,597.695496 566.955505,596.135376 566.400635,594.621033 
	C558.447266,572.911743 550.477051,551.208618 542.511108,529.503967 
	C539.165527,520.388489 539.165710,520.388428 528.500122,520.389343 
M782.630798,565.733032 
	C778.960266,555.746155 775.321960,545.747192 771.605713,535.777405 
	C769.752930,530.806702 769.081787,523.926086 765.463745,521.484924 
	C761.639221,518.904541 754.924072,520.811890 749.513733,520.307251 
	C745.853760,519.965820 744.687195,521.773804 743.620605,524.749146 
	C737.616699,541.497559 731.448059,558.186890 725.348877,574.901245 
	C722.398804,582.985657 719.477783,591.080566 716.411621,599.534668 
	C717.887695,599.681458 718.831726,599.851807 719.776550,599.856506 
	C724.768738,599.881287 729.773254,600.049377 734.744507,599.724792 
	C735.906311,599.648926 737.359680,598.054810 737.979553,596.810669 
	C739.670227,593.417725 740.069031,588.372681 742.698181,586.725769 
	C745.602112,584.906860 750.414551,586.128479 754.395935,586.039856 
	C755.560242,586.013916 756.725647,586.035889 757.890503,586.035889 
	C768.997131,586.035889 768.928345,586.064331 773.164673,596.307678 
	C773.748779,597.720032 775.353699,599.626831 776.582275,599.700562 
	C782.494995,600.055420 788.440674,599.860107 795.090820,599.860107 
	C790.848328,588.234680 786.875488,577.348083 782.630798,565.733032 
M435.633759,538.112549 
	C441.654755,537.849121 445.471100,541.280884 448.024963,546.342712 
	C453.806091,542.948669 458.938965,539.935242 464.004181,536.961548 
	C459.140076,523.590820 443.958466,516.278748 428.936462,519.754150 
	C418.191925,522.239929 410.944977,529.811096 409.913574,539.628052 
	C408.691010,551.264648 413.373077,559.291809 424.472534,564.208374 
	C427.809021,565.686401 431.335632,566.734253 434.771149,567.990051 
	C437.891205,569.130493 441.164032,569.982300 444.086121,571.505188 
	C448.549103,573.831238 448.523071,578.413025 444.073242,580.753906 
	C442.237122,581.719788 439.980591,582.201660 437.886017,582.303711 
	C430.683380,582.654419 425.561249,579.188354 422.418976,572.515930 
	C418.069824,575.048218 414.322418,577.549316 410.300293,579.477417 
	C406.656860,581.224060 406.459106,583.101929 408.391113,586.414917 
	C417.746674,602.457397 444.724274,606.929565 458.850708,594.177673 
	C462.207489,591.147583 464.870819,586.478394 466.050323,582.079712 
	C468.945496,571.282776 464.052673,561.561890 453.298096,556.091736 
	C447.254242,553.017639 440.537903,551.284790 434.394196,548.377747 
	C432.200897,547.339905 430.801788,544.623596 429.040161,542.673462 
	C430.972717,541.168701 432.905273,539.663940 435.633759,538.112549 
M579.895813,529.510376 
	C579.895813,532.458923 579.895813,535.407471 579.895813,539.026489 
	C586.813110,539.026489 593.193176,539.026489 600.082031,539.026489 
	C600.082031,559.599060 600.082031,579.498718 600.082031,599.546021 
	C606.686035,599.546021 612.742126,599.546021 619.282349,599.546021 
	C619.282349,579.294861 619.282349,559.367981 619.282349,538.925781 
	C626.015686,538.925781 632.274719,538.925781 638.769409,538.925781 
	C638.769409,532.538513 638.769409,526.674866 638.769409,520.740295 
	C619.033447,520.740295 599.636475,520.740295 579.895752,520.740295 
	C579.895752,523.574951 579.895752,526.059021 579.895813,529.510376 
M248.034698,562.500000 
	C248.034698,574.771667 248.034698,587.043335 248.034698,599.541504 
	C264.922058,599.541504 281.289337,599.541504 297.838898,599.541504 
	C297.838898,593.481262 297.838898,587.750183 297.838898,581.567078 
	C289.091370,581.567078 280.622833,581.396912 272.166595,581.645081 
	C268.420135,581.755066 267.340912,580.541321 267.379578,576.830383 
	C267.556427,559.853455 267.463928,542.873718 267.445709,525.894958 
	C267.443848,524.144592 267.292816,522.394348 267.215485,520.739685 
	C260.490326,520.739685 254.400406,520.739685 248.034714,520.739685 
	C248.034714,534.555969 248.034714,548.028015 248.034698,562.500000 
M349.293274,551.500183 
	C349.293274,541.243958 349.293274,530.987671 349.293274,520.695435 
	C342.471405,520.695435 336.378265,520.695435 330.292267,520.695435 
	C330.292267,547.178955 330.292267,573.356934 330.292267,599.580811 
	C346.923248,599.580811 363.155792,599.580811 379.687073,599.580811 
	C379.687073,593.567871 379.687073,587.840881 379.687073,582.188843 
	C379.207062,581.968994 378.909607,581.715637 378.609650,581.712585 
	C372.123047,581.647278 365.636200,581.586304 359.149292,581.572510 
	C349.293579,581.551514 349.293671,581.567017 349.293488,571.968933 
	C349.293365,565.479370 349.292938,558.989807 349.293274,551.500183 
M825.629517,552.499878 
	C825.629517,568.124634 825.629517,583.749390 825.629517,599.599854 
	C832.318726,599.599854 838.397644,599.599854 844.674377,599.599854 
	C844.674377,573.143738 844.674377,546.958435 844.674377,520.750305 
	C838.219482,520.750305 832.152771,520.750305 825.630066,520.750305 
	C825.630066,531.234558 825.630066,541.367188 825.629517,552.499878 
z"/>
<path fill="#2461E7" opacity="1.000000" stroke="none" 
	d="
M573.982971,391.081787 
	C572.662781,392.351318 571.586914,393.352020 570.029968,394.800049 
	C564.440491,385.170258 559.351868,375.649078 553.513794,366.612061 
	C549.660522,360.647430 549.104675,356.217407 553.047913,349.405334 
	C569.090393,321.691467 561.476440,286.801453 536.067200,266.908081 
	C511.049774,247.321320 475.538971,248.992401 451.707672,270.877808 
	C428.745514,291.965027 424.456055,327.601624 441.875671,353.920502 
	C443.599274,356.524628 443.739655,358.316254 442.130798,361.003845 
	C435.550934,371.995544 429.232086,383.143524 422.598297,394.612335 
	C421.351135,393.582764 420.263977,392.886749 419.425995,391.964355 
	C390.863281,360.523285 382.093048,324.085907 395.747711,284.028625 
	C409.485687,243.726990 438.899719,219.621368 481.022797,213.204620 
	C526.451355,206.284317 569.296936,228.762665 590.447205,268.695801 
	C611.562500,308.563019 605.224487,356.280945 573.982971,391.081787 
z"/>
<path fill="#2461E7" opacity="1.000000" stroke="none" 
	d="
M509.153992,405.910034 
	C504.907410,398.565063 500.838806,391.540375 496.296112,383.697174 
	C493.286224,388.805969 490.677399,393.177460 488.123810,397.580994 
	C483.947968,404.782166 479.898254,412.059143 475.568573,419.166046 
	C474.802063,420.424255 472.701630,422.008698 471.606171,421.755981 
	C456.335754,418.233246 442.487396,411.713348 430.106110,401.612183 
	C452.114288,363.496063 473.900238,325.764862 496.239532,287.075317 
	C518.550537,325.710541 540.380981,363.513611 562.388550,401.623352 
	C549.939636,411.698059 536.132019,418.304199 520.846069,421.809204 
	C519.809814,422.046783 517.876587,420.705658 517.158752,419.586700 
	C514.374634,415.247040 511.913422,410.700134 509.153992,405.910034 
z"/>
<path fill="#2663E7" opacity="1.000000" stroke="none" 
	d="
M170.391968,586.036377 
	C166.837967,585.468628 166.036224,587.580566 165.163925,589.896912 
	C161.402466,599.885254 161.365936,599.871521 150.747757,599.871521 
	C147.762344,599.871521 144.776932,599.871521 140.951126,599.871521 
	C141.601120,597.904602 142.046234,596.425781 142.574951,594.977478 
	C151.080734,571.676819 159.669861,548.406128 168.033218,525.054443 
	C169.294205,521.533569 170.908081,519.974670 174.779724,520.311584 
	C179.895813,520.756714 186.313950,518.835266 189.850433,521.284180 
	C193.368607,523.720459 194.117813,530.268005 195.899017,535.080200 
	C203.237473,554.906372 210.511108,574.756531 217.792648,594.603699 
	C218.351868,596.127991 218.787506,597.697571 219.475937,599.859497 
	C213.011795,599.859497 207.051559,600.054871 201.124451,599.698853 
	C199.901199,599.625427 198.307861,597.701477 197.723526,596.284607 
	C193.508423,586.064087 193.576843,586.035828 182.344482,586.035889 
	C178.512497,586.035889 174.680496,586.036011 170.391968,586.036377 
M178.808365,552.515625 
	C176.984329,557.417908 175.160309,562.320190 173.238312,567.485779 
	C178.165039,567.485779 182.356339,567.485779 187.105270,567.485779 
	C184.875977,561.233032 182.814056,555.449829 180.482101,548.909180 
	C179.719986,550.421143 179.361938,551.131531 178.808365,552.515625 
z"/>
<path fill="#2663E7" opacity="1.000000" stroke="none" 
	d="
M528.979858,520.389526 
	C539.165710,520.388428 539.165527,520.388489 542.511108,529.503967 
	C550.477051,551.208618 558.447266,572.911743 566.400635,594.621033 
	C566.955505,596.135376 567.385742,597.695496 568.072388,599.860046 
	C561.572510,599.860046 555.612793,600.056702 549.686707,599.697998 
	C548.466064,599.624084 546.880188,597.678711 546.296509,596.254272 
	C542.121094,586.064148 542.189636,586.036072 531.012939,586.036072 
	C530.014099,586.036072 528.989258,586.183716 528.020447,586.013123 
	C518.994385,584.423828 512.642883,586.757629 511.089539,596.927307 
	C510.918793,598.045105 509.043152,599.623413 507.845062,599.731262 
	C503.881653,600.088318 499.866425,599.869812 495.871063,599.871582 
	C494.059937,599.872375 492.248840,599.871765 489.661499,599.871765 
	C490.382263,597.640808 490.865814,595.961182 491.463074,594.323059 
	C499.667877,571.820007 508.079407,549.389282 515.960510,526.773682 
	C517.764160,521.597961 520.232971,519.445312 525.507690,520.365112 
	C526.477112,520.534180 527.501221,520.389282 528.979858,520.389526 
M534.397583,567.756775 
	C532.926758,561.768127 531.455994,555.779480 529.985168,549.790833 
	C529.419434,549.889954 528.853699,549.989075 528.287903,550.088196 
	C526.191162,555.829651 524.094482,561.571045 521.817932,567.804749 
	C526.360352,567.804749 529.982483,567.804749 534.397583,567.756775 
z"/>
<path fill="#2663E7" opacity="1.000000" stroke="none" 
	d="
M782.766724,566.097290 
	C786.875488,577.348083 790.848328,588.234680 795.090820,599.860107 
	C788.440674,599.860107 782.494995,600.055420 776.582275,599.700562 
	C775.353699,599.626831 773.748779,597.720032 773.164673,596.307678 
	C768.928345,586.064331 768.997131,586.035889 757.890503,586.035889 
	C756.725647,586.035889 755.560242,586.013916 754.395935,586.039856 
	C750.414551,586.128479 745.602112,584.906860 742.698181,586.725769 
	C740.069031,588.372681 739.670227,593.417725 737.979553,596.810669 
	C737.359680,598.054810 735.906311,599.648926 734.744507,599.724792 
	C729.773254,600.049377 724.768738,599.881287 719.776550,599.856506 
	C718.831726,599.851807 717.887695,599.681458 716.411621,599.534668 
	C719.477783,591.080566 722.398804,582.985657 725.348877,574.901245 
	C731.448059,558.186890 737.616699,541.497559 743.620605,524.749146 
	C744.687195,521.773804 745.853760,519.965820 749.513733,520.307251 
	C754.924072,520.811890 761.639221,518.904541 765.463745,521.484924 
	C769.081787,523.926086 769.752930,530.806702 771.605713,535.777405 
	C775.321960,545.747192 778.960266,555.746155 782.766724,566.097290 
M753.615051,554.099060 
	C752.046387,558.509155 750.477661,562.919250 748.862915,567.458740 
	C753.724121,567.458740 757.778931,567.458740 762.536377,567.458740 
	C760.312500,561.250732 758.282227,555.583191 755.912170,548.967041 
	C754.926697,551.101868 754.402832,552.236755 753.615051,554.099060 
z"/>
<path fill="#2663E7" opacity="1.000000" stroke="none" 
	d="
M435.235809,538.135864 
	C432.905273,539.663940 430.972717,541.168701 429.040161,542.673462 
	C430.801788,544.623596 432.200897,547.339905 434.394196,548.377747 
	C440.537903,551.284790 447.254242,553.017639 453.298096,556.091736 
	C464.052673,561.561890 468.945496,571.282776 466.050323,582.079712 
	C464.870819,586.478394 462.207489,591.147583 458.850708,594.177673 
	C444.724274,606.929565 417.746674,602.457397 408.391113,586.414917 
	C406.459106,583.101929 406.656860,581.224060 410.300293,579.477417 
	C414.322418,577.549316 418.069824,575.048218 422.418976,572.515930 
	C425.561249,579.188354 430.683380,582.654419 437.886017,582.303711 
	C439.980591,582.201660 442.237122,581.719788 444.073242,580.753906 
	C448.523071,578.413025 448.549103,573.831238 444.086121,571.505188 
	C441.164032,569.982300 437.891205,569.130493 434.771149,567.990051 
	C431.335632,566.734253 427.809021,565.686401 424.472534,564.208374 
	C413.373077,559.291809 408.691010,551.264648 409.913574,539.628052 
	C410.944977,529.811096 418.191925,522.239929 428.936462,519.754150 
	C443.958466,516.278748 459.140076,523.590820 464.004181,536.961548 
	C458.938965,539.935242 453.806091,542.948669 448.024963,546.342712 
	C445.471100,541.280884 441.654755,537.849121 435.235809,538.135864 
z"/>
<path fill="#2864E8" opacity="1.000000" stroke="none" 
	d="
M579.895752,529.026733 
	C579.895752,526.059021 579.895752,523.574951 579.895752,520.740295 
	C599.636475,520.740295 619.033447,520.740295 638.769409,520.740295 
	C638.769409,526.674866 638.769409,532.538513 638.769409,538.925781 
	C632.274719,538.925781 626.015686,538.925781 619.282349,538.925781 
	C619.282349,559.367981 619.282349,579.294861 619.282349,599.546021 
	C612.742126,599.546021 606.686035,599.546021 600.082031,599.546021 
	C600.082031,579.498718 600.082031,559.599060 600.082031,539.026489 
	C593.193176,539.026489 586.813110,539.026489 579.895813,539.026489 
	C579.895813,535.407471 579.895813,532.458923 579.895752,529.026733 
z"/>
<path fill="#2562E7" opacity="1.000000" stroke="none" 
	d="
M248.034698,562.000000 
	C248.034714,548.028015 248.034714,534.555969 248.034714,520.739685 
	C254.400406,520.739685 260.490326,520.739685 267.215485,520.739685 
	C267.292816,522.394348 267.443848,524.144592 267.445709,525.894958 
	C267.463928,542.873718 267.556427,559.853455 267.379578,576.830383 
	C267.340912,580.541321 268.420135,581.755066 272.166595,581.645081 
	C280.622833,581.396912 289.091370,581.567078 297.838898,581.567078 
	C297.838898,587.750183 297.838898,593.481262 297.838898,599.541504 
	C281.289337,599.541504 264.922058,599.541504 248.034698,599.541504 
	C248.034698,587.043335 248.034698,574.771667 248.034698,562.000000 
z"/>
<path fill="#2663E7" opacity="1.000000" stroke="none" 
	d="
M349.292969,552.000244 
	C349.292938,558.989807 349.293365,565.479370 349.293488,571.968933 
	C349.293671,581.567017 349.293579,581.551514 359.149292,581.572510 
	C365.636200,581.586304 372.123047,581.647278 378.609650,581.712585 
	C378.909607,581.715637 379.207062,581.968994 379.687073,582.188843 
	C379.687073,587.840881 379.687073,593.567871 379.687073,599.580811 
	C363.155792,599.580811 346.923248,599.580811 330.292267,599.580811 
	C330.292267,573.356934 330.292267,547.178955 330.292267,520.695435 
	C336.378265,520.695435 342.471405,520.695435 349.293274,520.695435 
	C349.293274,530.987671 349.293274,541.243958 349.292969,552.000244 
z"/>
<path fill="#2663E7" opacity="1.000000" stroke="none" 
	d="
M825.629761,551.999878 
	C825.630066,541.367188 825.630066,531.234558 825.630066,520.750305 
	C832.152771,520.750305 838.219482,520.750305 844.674377,520.750305 
	C844.674377,546.958435 844.674377,573.143738 844.674377,599.599854 
	C838.397644,599.599854 832.318726,599.599854 825.629517,599.599854 
	C825.629517,583.749390 825.629517,568.124634 825.629761,551.999878 
z"/>
<path fill="#ECF2FD" opacity="1.000000" stroke="none" 
	d="
M178.906128,552.178772 
	C179.361938,551.131531 179.719986,550.421143 180.482101,548.909180 
	C182.814056,555.449829 184.875977,561.233032 187.105270,567.485779 
	C182.356339,567.485779 178.165039,567.485779 173.238312,567.485779 
	C175.160309,562.320190 176.984329,557.417908 178.906128,552.178772 
z"/>
<path fill="#ECF2FD" opacity="1.000000" stroke="none" 
	d="
M534.001099,567.780762 
	C529.982483,567.804749 526.360352,567.804749 521.817932,567.804749 
	C524.094482,561.571045 526.191162,555.829651 528.287903,550.088196 
	C528.853699,549.989075 529.419434,549.889954 529.985168,549.790833 
	C531.455994,555.779480 532.926758,561.768127 534.001099,567.780762 
z"/>
<path fill="#ECF2FD" opacity="1.000000" stroke="none" 
	d="
M753.747009,553.735352 
	C754.402832,552.236755 754.926697,551.101868 755.912170,548.967041 
	C758.282227,555.583191 760.312500,561.250732 762.536377,567.458740 
	C757.778931,567.458740 753.724121,567.458740 748.862915,567.458740 
	C750.477661,562.919250 752.046387,558.509155 753.747009,553.735352 
z"/>
</svg>